<?xml version="1.0" encoding="UTF-8" standalone="no"?>
<!-- Created with Inkscape (http://www.inkscape.org/) -->
<svg
   xmlns:svg="http://www.w3.org/2000/svg"
   xmlns="http://www.w3.org/2000/svg"
   version="1.0"
   width="500"
   height="500"
   id="svg2">
  <defs
     id="defs4" />
  <g
     transform="translate(-125,-282.36218)"
     id="layer1">
    <path
       d="M 250,10 C 117.52,10 10,117.52 10,250 C 10,382.48 117.52,489.99999 250,490 C 382.48,490 490,382.48 490,250 C 490,117.52 382.48,10 250,10 z M 250,55 C 357.64,55.000002 445,142.35999 445,250 C 444.99999,357.64 357.64001,445 250,445 C 142.35999,445 55,357.64001 55,250 C 55,142.35999 142.35999,55 250,55 z "
       transform="translate(125,282.36218)"
       style="opacity:1;fill:#000000;fill-opacity:1;fill-rule:evenodd;stroke:none;stroke-width:4;stroke-linecap:round;stroke-linejoin:miter;stroke-miterlimit:4;stroke-dasharray:none;stroke-dashoffset:0;stroke-opacity:1"
       id="path3295" />
    <path
       d="M 328.98112,496.62085 L 299.01004,496.62085 C 298.91303,494.39014 298.86453,492.54726 298.86455,491.09221 C 298.86453,478.58017 301.70159,467.78962 307.37575,458.72054 C 313.04985,449.65181 321.92477,442.23179 334.00054,436.46047 C 346.0762,430.68955 359.87355,427.80398 375.39263,427.80378 C 390.13557,427.80398 403.37521,430.39856 415.11158,435.58753 C 426.84767,440.77689 435.60135,447.4452 441.37264,455.59249 C 447.1436,463.74014 450.02916,472.13009 450.02933,480.76237 C 450.02916,487.55208 448.23478,494.2204 444.64618,500.76734 C 441.05725,507.31454 436.20756,512.86743 430.09711,517.42602 C 426.02323,520.43294 419.96112,523.48824 411.91078,526.59193 C 419.18517,527.36798 425.68375,529.13812 431.40653,531.90234 C 437.129,534.66676 442.09993,538.15853 446.31932,542.37766 C 450.53838,546.59698 453.69067,551.37392 455.77621,556.70849 C 457.8614,562.04322 458.90408,567.81434 458.90426,574.02188 C 458.90408,585.17621 455.6063,595.60303 449.0109,605.30237 C 442.41516,615.00176 432.6188,622.834 419.62179,628.79911 C 406.62449,634.76422 391.54198,637.74678 374.3742,637.74678 C 357.5942,637.74678 342.65717,634.93396 329.56308,629.30832 C 316.46888,623.6827 306.62402,616.55366 300.02848,607.9212 C 293.43288,599.28879 290.1351,590.70485 290.13511,582.16935 C 290.1351,575.67083 292.46295,570.09369 297.11866,565.43793 C 301.77434,560.7823 307.39997,558.45445 313.99558,558.45438 C 320.30013,558.45445 325.87727,560.63681 330.727,565.00146 C 333.83075,567.81434 336.49807,572.61553 338.72899,579.40503 C 341.54174,588.23151 344.08783,594.07538 346.36725,596.93665 C 348.64653,599.798 352.35654,602.34409 357.49728,604.57491 C 362.63787,606.8058 367.87552,607.92122 373.21027,607.9212 C 379.41777,607.92122 385.40713,606.41782 391.17837,603.41099 C 396.94938,600.40422 401.19285,596.59721 403.9088,591.98997 C 406.62449,587.38282 407.98241,581.82993 407.98254,575.33129 C 407.98241,563.40113 403.37521,554.6232 394.16092,548.99749 C 387.08027,544.63286 376.07149,542.4505 361.13455,542.45041 L 351.67766,542.45041 L 351.67766,514.37071 L 361.13455,514.37071 C 372.96769,514.37083 381.43039,513.49789 386.52267,511.75188 C 391.61472,510.00612 395.61571,507.07206 398.52564,502.9497 C 401.43533,498.8276 402.89024,494.39014 402.89036,489.6373 C 402.89024,483.13887 400.4654,477.56174 395.61583,472.90588 C 389.50511,466.98943 380.19372,464.03112 367.68163,464.03095 C 359.34008,464.03112 352.47778,465.29204 347.0947,467.81371 C 341.71148,470.33571 337.49226,473.90022 334.43701,478.50727 C 331.38166,483.11462 329.56303,489.15248 328.98112,496.62085 L 328.98112,496.62085 z "
       style="font-size:297.96484375px;font-style:normal;font-weight:normal;fill:#000000;fill-opacity:1;stroke:none;stroke-width:1px;stroke-linecap:butt;stroke-linejoin:miter;stroke-opacity:1;font-family:Arial"
       id="text3300" />
  </g>
</svg>
